<svg width="48" height="48" viewBox="0 0 48 48" fill="none" xmlns="http://www.w3.org/2000/svg">
<path d="M18.5765 8.33996C17.2025 6.30896 15.7955 4.59596 14.5265 3.41096C13.8969 2.79345 13.179 2.27278 12.3965 1.86596C11.7455 1.55396 10.7165 1.25096 9.75054 1.80596C8.64954 2.44496 8.46954 3.69596 8.46054 4.49396C8.45154 5.40596 8.65254 6.48596 8.97954 7.62596C9.56754 9.68696 10.6475 12.21 12.0845 14.832L2.25654 24.66C1.42554 25.491 1.44954 26.628 1.60254 27.414C1.76754 28.263 2.16354 29.193 2.68254 30.123C3.72654 32.004 5.44254 34.206 7.56054 36.327C9.68154 38.448 11.8835 40.161 13.7645 41.205C14.6945 41.724 15.6245 42.12 16.4735 42.285C17.2595 42.435 18.3935 42.462 19.2275 41.631L36.0725 24.786C36.4265 25.557 36.3485 26.322 36.2225 27.603C36.1325 28.479 36.0185 29.598 36.0035 31.131V31.5H36.0125C36.0754 32.2496 36.4176 32.9482 36.9713 33.4574C37.525 33.9666 38.2498 34.2492 39.002 34.2492C39.7543 34.2492 40.4791 33.9666 41.0328 33.4574C41.5865 32.9482 41.9287 32.2496 41.9915 31.5H42.0005V31.329C42.0033 31.2118 41.9993 31.0946 41.9885 30.978C41.8235 27.228 39.8885 22.764 36.4085 20.496C36.2219 20.0505 36.0106 19.6158 35.7755 19.194C34.7285 17.316 33.0155 15.114 30.8945 12.993C28.7735 10.872 26.5715 9.15596 24.6905 8.11196C23.7605 7.59596 22.8305 7.19996 21.9815 7.03196C21.1955 6.88196 20.0615 6.85796 19.2275 7.68896L18.5765 8.33696V8.33996ZM12.4805 5.60096C13.6235 6.66896 15.0125 8.36696 16.4135 10.497L14.3015 12.612C13.1555 10.431 12.3215 8.40596 11.8625 6.79796C11.6614 6.14052 11.5297 5.46383 11.4695 4.77896C11.7425 4.96196 12.0815 5.22896 12.4805 5.60096ZM13.6625 17.496C15.2825 20.052 16.9835 22.197 18.4835 23.595C18.6277 23.7293 18.797 23.8339 18.9816 23.9029C19.1662 23.9718 19.3626 24.0037 19.5596 23.9967C19.7565 23.9898 19.9502 23.9441 20.1295 23.8623C20.3088 23.7805 20.4702 23.6642 20.6045 23.52C20.7389 23.3758 20.8435 23.2065 20.9124 23.0219C20.9814 22.8373 21.0133 22.6409 21.0063 22.4439C20.9993 22.247 20.9537 22.0533 20.8719 21.874C20.79 21.6947 20.6737 21.5333 20.5295 21.399C19.1705 20.133 17.4785 17.991 15.8375 15.318L19.1015 12.054C19.2635 12.414 19.4465 12.783 19.6505 13.149C20.6975 15.03 22.4105 17.232 24.5315 19.353C26.6495 21.474 28.8515 23.187 30.7355 24.231C31.1015 24.435 31.4675 24.621 31.8305 24.78L17.2475 39.366C17.179 39.3601 17.1109 39.35 17.0435 39.336C16.6325 39.255 16.0175 39.024 15.2195 38.58C13.6475 37.704 11.6615 36.18 9.68154 34.2C7.70154 32.22 6.17754 30.24 5.30154 28.662C4.86054 27.867 4.62654 27.252 4.54854 26.841C4.53446 26.7736 4.52445 26.7055 4.51854 26.637L13.6625 17.496V17.496ZM22.2725 11.691C21.962 11.1624 21.7191 10.597 21.5495 10.008C21.9545 10.107 22.5215 10.338 23.2355 10.731C24.8075 11.607 26.7935 13.131 28.7735 15.111C30.1235 16.461 31.2635 17.814 32.1275 19.041C31.0538 18.9674 29.9752 19.0595 28.9295 19.314C28.1382 18.655 27.3774 17.9603 26.6495 17.232C24.6695 15.252 23.1485 13.266 22.2755 11.691H22.2725Z" fill="#C678DD"/>
</svg>
